solid Visualization Toolkit generated SLA File
 facet normal 0.54539535768461711 -0.71083324029251949 0.44413962704458798
  outer loop
   vertex 20.142000198364258 -20.142000198364258 0
   vertex 6 -6 40
   vertex 16 -23.319999694824219 0
  endloop
 endfacet
 facet normal 0.88827982860311239 0.1170413714078567 0.44413991430155619
  outer loop
   vertex 25.318000793457031 -0.82400000095367432 0
   vertex 6 -6 40
   vertex 26 -6 0
  endloop
 endfacet
 facet normal 0.71083324029251949 -0.54539535768461711 0.44413962704458798
  outer loop
   vertex 23.319999694824219 -16 0
   vertex 6 -6 40
   vertex 20.142000198364258 -20.142000198364258 0
  endloop
 endfacet
 facet normal 0.82776895383889948 -0.34284476704942984 0.44413514245922503
  outer loop
   vertex 25.318000793457031 -11.175999641418457 0
   vertex 6 -6 40
   vertex 23.319999694824219 -16 0
  endloop
 endfacet
 facet normal 0.34284462886946643 0.82776901532127645 0.44413513453610293
  outer loop
   vertex 16 11.319999694824219 0
   vertex 11.175999641418457 13.317999839782715 0
   vertex 6 -6 40
  endloop
 endfacet
 facet normal 0.88827982776236447 -0.11704137938387479 0.44413991388118224
  outer loop
   vertex 26 -6 0
   vertex 6 -6 40
   vertex 25.318000793457031 -11.175999641418457 0
  endloop
 endfacet
 facet normal -0.34284478851115913 -0.82776894428962489 0.44413514368982149
  outer loop
   vertex -4 -23.319999694824219 0
   vertex 0.82400000095367432 -25.318000793457031 0
   vertex 6 -6 40
  endloop
 endfacet
 facet normal 0.11704154080681325 0.88827981074684659 0.44413990537342329
  outer loop
   vertex 11.175999641418457 13.317999839782715 0
   vertex 6 14 0
   vertex 6 -6 40
  endloop
 endfacet
 facet normal -0.1170413714078567 -0.88827982860311239 0.44413991430155619
  outer loop
   vertex 0.82400000095367432 -25.318000793457031 0
   vertex 6 -26 0
   vertex 6 -6 40
  endloop
 endfacet
 facet normal -0.11704153283078446 0.88827981158759683 0.44413990579379842
  outer loop
   vertex 6 14 0
   vertex 0.82400000095367432 13.317999839782715 0
   vertex 6 -6 40
  endloop
 endfacet
 facet normal 0 0 -1
  outer loop
   vertex -8.1420001983642578 -20.142000198364258 0
   vertex -11.319999694824219 -16 0
   vertex -4 -23.319999694824219 0
  endloop
 endfacet
 facet normal 0 0 -1
  outer loop
   vertex -11.319999694824219 -16 0
   vertex -13.317999839782715 -11.175999641418457 0
   vertex -4 -23.319999694824219 0
  endloop
 endfacet
 facet normal 0 0 -1
  outer loop
   vertex 0.82400000095367432 -25.318000793457031 0
   vertex -4 -23.319999694824219 0
   vertex -13.317999839782715 -11.175999641418457 0
  endloop
 endfacet
 facet normal 0 0 -1
  outer loop
   vertex 6 -26 0
   vertex 0.82400000095367432 -25.318000793457031 0
   vertex -13.317999839782715 -11.175999641418457 0
  endloop
 endfacet
 facet normal 0 0 -1
  outer loop
   vertex 6 -26 0
   vertex -13.317999839782715 -11.175999641418457 0
   vertex -14 -6 0
  endloop
 endfacet
 facet normal 0 0 -1
  outer loop
   vertex 6 -26 0
   vertex -14 -6 0
   vertex -13.317999839782715 -0.82400000095367432 0
  endloop
 endfacet
 facet normal 0 0 -1
  outer loop
   vertex 6 -26 0
   vertex -13.317999839782715 -0.82400000095367432 0
   vertex -11.319999694824219 4 0
  endloop
 endfacet
 facet normal 0 0 -1
  outer loop
   vertex 6 -26 0
   vertex -11.319999694824219 4 0
   vertex -8.1420001983642578 8.1420001983642578 0
  endloop
 endfacet
 facet normal 0 0 -1
  outer loop
   vertex 6 -26 0
   vertex -8.1420001983642578 8.1420001983642578 0
   vertex -4 11.319999694824219 0
  endloop
 endfacet
 facet normal 0 0 -1
  outer loop
   vertex 6 -26 0
   vertex -4 11.319999694824219 0
   vertex 0.82400000095367432 13.317999839782715 0
  endloop
 endfacet
 facet normal 0 0 -1
  outer loop
   vertex 6 -26 0
   vertex 0.82400000095367432 13.317999839782715 0
   vertex 6 14 0
  endloop
 endfacet
 facet normal 0 0 -1
  outer loop
   vertex 6 -26 0
   vertex 6 14 0
   vertex 11.175999641418457 13.317999839782715 0
  endloop
 endfacet
 facet normal 0 -0 -1
  outer loop
   vertex 6 -26 0
   vertex 11.175999641418457 13.317999839782715 0
   vertex 16 11.319999694824219 0
  endloop
 endfacet
 facet normal 0 -0 -1
  outer loop
   vertex 6 -26 0
   vertex 16 11.319999694824219 0
   vertex 20.142000198364258 8.1420001983642578 0
  endloop
 endfacet
 facet normal 0 -0 -1
  outer loop
   vertex 6 -26 0
   vertex 20.142000198364258 8.1420001983642578 0
   vertex 23.319999694824219 4 0
  endloop
 endfacet
 facet normal 0 -0 -1
  outer loop
   vertex 6 -26 0
   vertex 23.319999694824219 4 0
   vertex 25.318000793457031 -0.82400000095367432 0
  endloop
 endfacet
 facet normal 0 -0 -1
  outer loop
   vertex 6 -26 0
   vertex 25.318000793457031 -0.82400000095367432 0
   vertex 26 -6 0
  endloop
 endfacet
 facet normal 0 0 -1
  outer loop
   vertex 6 -26 0
   vertex 26 -6 0
   vertex 25.318000793457031 -11.175999641418457 0
  endloop
 endfacet
 facet normal 0 0 -1
  outer loop
   vertex 23.319999694824219 -16 0
   vertex 11.175999641418457 -25.318000793457031 0
   vertex 25.318000793457031 -11.175999641418457 0
  endloop
 endfacet
 facet normal 0 0 -1
  outer loop
   vertex 20.142000198364258 -20.142000198364258 0
   vertex 16 -23.319999694824219 0
   vertex 23.319999694824219 -16 0
  endloop
 endfacet
 facet normal 0 0 -1
  outer loop
   vertex 11.175999641418457 -25.318000793457031 0
   vertex 23.319999694824219 -16 0
   vertex 16 -23.319999694824219 0
  endloop
 endfacet
 facet normal 0 0 -1
  outer loop
   vertex 6 -26 0
   vertex 25.318000793457031 -11.175999641418457 0
   vertex 11.175999641418457 -25.318000793457031 0
  endloop
 endfacet
 facet normal -0.88827981074684659 -0.11704154080681325 0.44413990537342329
  outer loop
   vertex -14 -6 0
   vertex -13.317999839782715 -11.175999641418457 0
   vertex 6 -6 40
  endloop
 endfacet
 facet normal -0.54539535768461711 0.71083324029251949 0.44413962704458798
  outer loop
   vertex -4 11.319999694824219 0
   vertex -8.1420001983642578 8.1420001983642578 0
   vertex 6 -6 40
  endloop
 endfacet
 facet normal -0.82776901532127645 -0.34284462886946643 0.44413513453610293
  outer loop
   vertex -13.317999839782715 -11.175999641418457 0
   vertex -11.319999694824219 -16 0
   vertex 6 -6 40
  endloop
 endfacet
 facet normal -0.34284465033118988 0.82776900577200796 0.44413513576670061
  outer loop
   vertex 0.82400000095367432 13.317999839782715 0
   vertex -4 11.319999694824219 0
   vertex 6 -6 40
  endloop
 endfacet
 facet normal -0.71083324029251949 0.54539535768461711 0.44413962704458798
  outer loop
   vertex -8.1420001983642578 8.1420001983642578 0
   vertex -11.319999694824219 4 0
   vertex 6 -6 40
  endloop
 endfacet
 facet normal -0.71083324029251949 -0.54539535768461711 0.44413962704458798
  outer loop
   vertex -11.319999694824219 -16 0
   vertex -8.1420001983642578 -20.142000198364258 0
   vertex 6 -6 40
  endloop
 endfacet
 facet normal 0.11704137938387479 -0.88827982776236447 0.44413991388118224
  outer loop
   vertex 11.175999641418457 -25.318000793457031 0
   vertex 6 -6 40
   vertex 6 -26 0
  endloop
 endfacet
 facet normal -0.82776900577200796 0.34284465033118988 0.44413513576670061
  outer loop
   vertex -11.319999694824219 4 0
   vertex -13.317999839782715 -0.82400000095367432 0
   vertex 6 -6 40
  endloop
 endfacet
 facet normal -0.54539535768461711 -0.71083324029251949 0.44413962704458798
  outer loop
   vertex -8.1420001983642578 -20.142000198364258 0
   vertex -4 -23.319999694824219 0
   vertex 6 -6 40
  endloop
 endfacet
 facet normal 0.34284476704942984 -0.82776895383889948 0.44413514245922503
  outer loop
   vertex 16 -23.319999694824219 0
   vertex 6 -6 40
   vertex 11.175999641418457 -25.318000793457031 0
  endloop
 endfacet
 facet normal -0.88827981158759683 0.11704153283078446 0.44413990579379842
  outer loop
   vertex -13.317999839782715 -0.82400000095367432 0
   vertex -14 -6 0
   vertex 6 -6 40
  endloop
 endfacet
 facet normal 0.82776894428962489 0.34284478851115913 0.44413514368982149
  outer loop
   vertex 23.319999694824219 4 0
   vertex 6 -6 40
   vertex 25.318000793457031 -0.82400000095367432 0
  endloop
 endfacet
 facet normal 0.71083324029251949 0.54539535768461711 0.44413962704458798
  outer loop
   vertex 20.142000198364258 8.1420001983642578 0
   vertex 6 -6 40
   vertex 23.319999694824219 4 0
  endloop
 endfacet
 facet normal 0.54539535768461711 0.71083324029251949 0.44413962704458798
  outer loop
   vertex 20.142000198364258 8.1420001983642578 0
   vertex 16 11.319999694824219 0
   vertex 6 -6 40
  endloop
 endfacet
endsolid
